<svg id="ruby_mine" data-name="ruby mine" xmlns="http://www.w3.org/2000/svg" viewBox="0 0 128 128"><defs><style>.cls-1{fill:#c12c4c}.cls-2{fill:#fa930d}</style></defs><title>Artboard 14</title><g id="original"><path class="cls-1" d="M122.19 97.45c-1.28-2-13.17-18.24-14.14-20.19l-.35-.69.64-.46a38.51 38.51 0 0 0 16.33-31.41v-1.06c0-8.69-3-17-8.34-22.77-6.2-6.76-15.11-10.73-25.33-11.47v25.14c5.37 1.54 9 6.52 9 13 0 7.4-5.73 11.34-10.54 14.19l-1.91 1.16a13.63 13.63 0 0 0-6.49 11.89 20.74 20.74 0 0 0 1.85 8.27l1.7 2.95 17.44 25 .28.43 2.35 3.42a10.44 10.44 0 0 0 6 3.88 12.94 12.94 0 0 0 10-1.79 10.83 10.83 0 0 0 4.91-7.37l.21-2.08a18.65 18.65 0 0 0-3.61-10.04z"/><path class="cls-2" d="M85.39 9.14A37.23 37.23 0 0 0 76.28 11c-.26.09-.51.21-.77.3-.89.32-1.76.65-2.62 1-.33.15-.65.33-1 .49-.85.42-1.72.8-2.54 1.28a36.86 36.86 0 0 0-5.76 4.14A37 37 0 0 0 2.15 46a.61.61 0 0 0 0 .12v70.78h25.19V46.15a.78.78 0 0 1 0-.12A11.82 11.82 0 0 1 51 45.92V46a.63.63 0 0 0 0 .12v70.78h25.2V46.14v-.08-.1a8.8 8.8 0 0 1 .1-.92v-.64a11.75 11.75 0 0 1 9.06-9.85V9.14z"/></g></svg>