<svg id="Devicon" xmlns="http://www.w3.org/2000/svg" viewBox="0 0 128 128"><defs><style>.cls-1{fill:#558d6c}.cls-2{fill:#5aa579}.cls-3{fill:#60be86}.cls-4{fill:#65d693}</style></defs><title>Artboard 15</title><g id="original"><path class="cls-1" d="M4.92 8l10.17 87.05L64 119.95V8H4.92z"/><path class="cls-2" d="M64 8v111.95l.05.05 48.93-24.91L123.08 8H64z"/><path class="cls-3" d="M18.84 22.11l6.49 65.18L64 105.97V22.11H18.84z"/><path class="cls-4" d="M64 22.11v83.86l.05.05 38.69-18.76 6.42-65.15H64z"/><path class="cls-2" d="M105.72 54.9L73.14 39.42l-1.83-.9-1.12 2.28L64 53.41V68.3l9.15-18.08 21.5 9.57-23.09 10.37-.87.47v10.88L73 80.38l32.78-15.69a2 2 0 0 0 .92-2v-5.78a2 2 0 0 0-.98-2.01z"/><path class="cls-1" d="M56 69.39l-21.79-9.6 23.3-10.37 1.76-.7V37.76l-3.4 1.44-33.93 15.69a2.26 2.26 0 0 0-1.28 2v5.77a2.22 2.22 0 0 0 1.24 2l33.44 15.52 2 .9 1.21-2.26L64 68.3V53.41z"/></g></svg>